<svg xmlns="http://www.w3.org/2000/svg" width="384pt" height="384pt" viewBox="0 0 384 384" version="1.1" class="iconadda">
<g id="surface443152">
<g id="Hotel_free_icon_uTlUxsm-0"><path style=" stroke:none;fill-rule:nonzero;fill:rgb(98.039216%,75.686275%,46.27451%);fill-opacity:1;" d="M 278.070312 182.136719 L 278.070312 6.621094 C 278.070312 2.964844 281.03125 0 284.691406 0 L 377.382812 0 L 377.378906 0 C 379.136719 0 380.820312 0.699219 382.0625 1.9375 C 383.300781 3.179688 384 4.863281 384 6.621094 L 384 344.277344 C 384 346.03125 383.300781 347.714844 382.0625 348.957031 C 380.820312 350.199219 379.136719 350.898438 377.378906 350.898438 L 278.070312 350.898438 Z M 105.929688 350.898438 L 6.621094 350.898438 C 2.964844 350.898438 0 347.933594 0 344.277344 L 0 6.621094 C 0 2.964844 2.964844 0 6.621094 0 L 99.3125 0 L 99.308594 0 C 101.066406 0 102.75 0.699219 103.992188 1.9375 C 105.234375 3.179688 105.929688 4.863281 105.929688 6.621094 Z M 105.929688 350.898438 " />
</g><g id="Hotel_free_icon_uTlUxsm-1"><path style=" stroke:none;fill-rule:nonzero;fill:rgb(94.901961%,61.176471%,12.156863%);fill-opacity:1;" d="M 278.070312 86.070312 L 278.070312 182.136719 C 260.921875 164.257812 228.8125 152.277344 192 152.277344 C 155.1875 152.277344 123.078125 164.261719 105.929688 182.136719 L 105.929688 86.070312 L 155.386719 86.070312 L 161.476562 91.832031 L 156.644531 119.308594 L 156.644531 119.304688 C 156.191406 121.785156 157.183594 124.308594 159.210938 125.8125 C 161.234375 127.316406 163.9375 127.539062 166.179688 126.390625 L 192 113.214844 L 217.820312 126.390625 C 220.0625 127.539062 222.765625 127.316406 224.789062 125.8125 C 226.816406 124.308594 227.808594 121.785156 227.355469 119.304688 L 222.523438 91.828125 L 228.613281 86.066406 Z M 278.070312 86.070312 " />
</g><g id="Hotel_free_icon_uTlUxsm-2"><path style=" stroke:none;fill-rule:nonzero;fill:rgb(82.352941%,33.72549%,15.294118%);fill-opacity:1;" d="M 192 166.179688 C 188.34375 166.179688 185.378906 163.214844 185.378906 159.558594 L 185.378906 105.929688 C 185.378906 102.273438 188.34375 99.308594 192 99.308594 C 195.65625 99.308594 198.621094 102.273438 198.621094 105.929688 L 198.621094 159.558594 C 198.621094 161.316406 197.921875 163 196.679688 164.238281 C 195.441406 165.480469 193.757812 166.179688 192 166.179688 Z M 192 166.179688 " />
</g><g id="Hotel_free_icon_uTlUxsm-3"><path style=" stroke:none;fill-rule:nonzero;fill:rgb(89.803922%,49.411765%,14.509804%);fill-opacity:1;" d="M 105.929688 251.585938 L 105.929688 377.378906 C 105.929688 379.136719 105.234375 380.820312 103.992188 382.0625 C 102.75 383.300781 101.066406 384 99.308594 384 L 79.445312 384 L 79.449219 384 C 75.792969 384 72.828125 381.035156 72.828125 377.378906 L 72.828125 251.585938 Z M 311.171875 251.585938 L 311.171875 377.378906 C 311.171875 379.136719 310.476562 380.820312 309.234375 382.0625 C 307.992188 383.300781 306.308594 384 304.550781 384 L 284.6875 384 L 284.691406 384 C 281.03125 384 278.070312 381.035156 278.070312 377.378906 L 278.070312 251.585938 Z M 311.171875 251.585938 " />
</g><g id="Hotel_free_icon_uTlUxsm-4"><path style=" stroke:none;fill-rule:nonzero;fill:rgb(82.352941%,33.72549%,15.294118%);fill-opacity:1;" d="M 105.929688 251.585938 L 278.066406 251.585938 L 278.066406 350.894531 L 105.929688 350.898438 Z M 105.929688 251.585938 " />
</g><g id="Hotel_free_icon_uTlUxsm-5"><path style=" stroke:none;fill-rule:nonzero;fill:rgb(94.901961%,61.176471%,12.156863%);fill-opacity:1;" d="M 59.585938 211.863281 L 324.414062 211.863281 C 331.726562 211.863281 337.65625 219.175781 337.65625 225.105469 L 337.65625 238.347656 C 337.65625 245.660156 331.726562 251.589844 324.414062 251.589844 L 59.585938 251.589844 C 52.273438 251.589844 46.34375 244.277344 46.34375 238.347656 L 46.34375 225.105469 C 46.34375 217.792969 52.273438 211.863281 59.585938 211.863281 Z M 59.585938 211.863281 " />
</g><g id="Hotel_free_icon_uTlUxsm-6"><path style=" stroke:none;fill-rule:nonzero;fill:rgb(24.705882%,36.078431%,42.352941%);fill-opacity:1;" d="M 192 284.691406 L 192 350.898438 L 158.898438 350.898438 L 158.898438 291.308594 C 158.898438 287.652344 161.859375 284.691406 165.515625 284.691406 Z M 192 284.691406 " />
</g><g id="Hotel_free_icon_uTlUxsm-7"><path style=" stroke:none;fill-rule:nonzero;fill:rgb(20.784314%,28.627451%,36.862745%);fill-opacity:1;" d="M 225.101562 291.308594 L 225.101562 350.894531 L 192 350.894531 L 192 284.691406 L 218.484375 284.691406 C 220.238281 284.691406 221.921875 285.386719 223.164062 286.628906 C 224.40625 287.871094 225.101562 289.554688 225.101562 291.308594 Z M 225.101562 291.308594 " />
</g><g id="Hotel_free_icon_uTlUxsm-8"><path style=" stroke:none;fill-rule:nonzero;fill:rgb(24.705882%,36.078431%,42.352941%);fill-opacity:1;" d="M 132.414062 297.929688 L 132.414062 350.894531 L 105.929688 350.894531 L 105.929688 291.308594 L 125.792969 291.308594 C 127.550781 291.308594 129.234375 292.007812 130.476562 293.25 C 131.714844 294.492188 132.414062 296.175781 132.414062 297.929688 Z M 278.070312 291.308594 L 278.070312 350.894531 L 251.585938 350.894531 L 251.585938 297.929688 C 251.585938 294.273438 254.550781 291.308594 258.207031 291.308594 Z M 278.070312 291.308594 " />
</g><g id="Hotel_free_icon_uTlUxsm-9"><path style=" stroke:none;fill-rule:nonzero;fill:rgb(95.294118%,83.529412%,35.686275%);fill-opacity:1;" d="M 291.308594 211.863281 L 92.691406 211.863281 C 93.042969 200.601562 97.796875 189.929688 105.929688 182.136719 C 123.078125 164.261719 155.1875 152.277344 192 152.277344 C 228.8125 152.277344 260.921875 164.261719 278.070312 182.136719 C 286.203125 189.929688 290.957031 200.601562 291.308594 211.863281 Z M 291.308594 211.863281 " />
</g><g id="Hotel_free_icon_uTlUxsm-10"><path style=" stroke:none;fill-rule:nonzero;fill:rgb(64.705882%,41.568627%,26.27451%);fill-opacity:1;" d="M 46.34375 59.585938 L 26.484375 59.585938 C 22.828125 59.585938 19.863281 56.621094 19.863281 52.964844 C 19.863281 49.308594 22.828125 46.34375 26.484375 46.34375 L 46.347656 46.34375 L 46.34375 46.34375 C 50 46.34375 52.964844 49.308594 52.964844 52.964844 C 52.964844 56.621094 50 59.585938 46.34375 59.585938 Z M 79.449219 59.585938 L 72.828125 59.585938 C 69.171875 59.585938 66.207031 56.621094 66.207031 52.964844 C 66.207031 49.308594 69.171875 46.34375 72.828125 46.34375 L 79.449219 46.34375 C 83.105469 46.34375 86.070312 49.308594 86.070312 52.964844 C 86.070312 56.621094 83.105469 59.585938 79.449219 59.585938 Z M 46.34375 86.070312 L 26.484375 86.070312 C 22.828125 86.070312 19.863281 83.105469 19.863281 79.449219 C 19.863281 75.792969 22.828125 72.828125 26.484375 72.828125 L 46.347656 72.828125 L 46.34375 72.828125 C 50 72.828125 52.964844 75.792969 52.964844 79.449219 C 52.964844 83.105469 50 86.070312 46.34375 86.070312 Z M 79.449219 86.070312 L 72.828125 86.070312 C 69.171875 86.070312 66.207031 83.105469 66.207031 79.449219 C 66.207031 75.792969 69.171875 72.828125 72.828125 72.828125 L 79.449219 72.828125 C 83.105469 72.828125 86.070312 75.792969 86.070312 79.449219 C 86.070312 83.105469 83.105469 86.070312 79.449219 86.070312 Z M 46.34375 112.550781 L 26.484375 112.550781 C 22.828125 112.550781 19.863281 109.585938 19.863281 105.929688 C 19.863281 102.273438 22.828125 99.308594 26.484375 99.308594 L 46.347656 99.308594 L 46.34375 99.308594 C 50 99.308594 52.964844 102.273438 52.964844 105.929688 C 52.964844 109.585938 50 112.550781 46.34375 112.550781 Z M 79.449219 112.550781 L 72.828125 112.550781 C 69.171875 112.550781 66.207031 109.585938 66.207031 105.929688 C 66.207031 102.273438 69.171875 99.308594 72.828125 99.308594 L 79.449219 99.308594 C 83.105469 99.308594 86.070312 102.273438 86.070312 105.929688 C 86.070312 109.585938 83.105469 112.550781 79.449219 112.550781 Z M 46.34375 139.035156 L 26.484375 139.035156 C 22.828125 139.035156 19.863281 136.070312 19.863281 132.414062 C 19.863281 128.757812 22.828125 125.792969 26.484375 125.792969 L 46.347656 125.792969 L 46.34375 125.792969 C 50 125.792969 52.964844 128.757812 52.964844 132.414062 C 52.964844 136.070312 50 139.035156 46.34375 139.035156 Z M 79.449219 139.035156 L 72.828125 139.035156 C 69.171875 139.035156 66.207031 136.070312 66.207031 132.414062 C 66.207031 128.757812 69.171875 125.792969 72.828125 125.792969 L 79.449219 125.792969 C 83.105469 125.792969 86.070312 128.757812 86.070312 132.414062 C 86.070312 136.070312 83.105469 139.035156 79.449219 139.035156 Z M 46.34375 165.515625 L 26.484375 165.515625 C 22.828125 165.515625 19.863281 162.554688 19.863281 158.898438 C 19.863281 155.238281 22.828125 152.277344 26.484375 152.277344 L 46.347656 152.277344 L 46.34375 152.277344 C 50 152.277344 52.964844 155.238281 52.964844 158.898438 C 52.964844 162.554688 50 165.515625 46.34375 165.515625 Z M 79.449219 165.515625 L 72.828125 165.515625 C 69.171875 165.515625 66.207031 162.554688 66.207031 158.898438 C 66.207031 155.238281 69.171875 152.277344 72.828125 152.277344 L 79.449219 152.277344 C 83.105469 152.277344 86.070312 155.238281 86.070312 158.898438 C 86.070312 162.554688 83.105469 165.515625 79.449219 165.515625 Z M 46.34375 192 L 26.484375 192 C 22.828125 192 19.863281 189.035156 19.863281 185.378906 C 19.863281 181.722656 22.828125 178.757812 26.484375 178.757812 L 46.347656 178.757812 L 46.34375 178.757812 C 50 178.757812 52.964844 181.722656 52.964844 185.378906 C 52.964844 189.035156 50 192 46.34375 192 Z M 46.34375 291.308594 L 26.484375 291.308594 C 22.828125 291.308594 19.863281 288.347656 19.863281 284.691406 C 19.863281 281.03125 22.828125 278.070312 26.484375 278.070312 L 46.347656 278.070312 L 46.34375 278.070312 C 50 278.070312 52.964844 281.03125 52.964844 284.691406 C 52.964844 288.347656 50 291.308594 46.34375 291.308594 Z M 46.34375 317.792969 L 26.484375 317.792969 C 22.828125 317.792969 19.863281 314.828125 19.863281 311.171875 C 19.863281 307.515625 22.828125 304.550781 26.484375 304.550781 L 46.347656 304.550781 L 46.34375 304.550781 C 50 304.550781 52.964844 307.515625 52.964844 311.171875 C 52.964844 314.828125 50 317.792969 46.34375 317.792969 Z M 357.515625 291.308594 L 337.652344 291.308594 L 337.65625 291.308594 C 334 291.308594 331.035156 288.347656 331.035156 284.691406 C 331.035156 281.03125 334 278.070312 337.65625 278.070312 L 357.519531 278.070312 L 357.515625 278.070312 C 361.171875 278.070312 364.136719 281.03125 364.136719 284.691406 C 364.136719 288.347656 361.171875 291.308594 357.515625 291.308594 Z M 357.515625 317.792969 L 337.652344 317.792969 L 337.65625 317.792969 C 334 317.792969 331.035156 314.828125 331.035156 311.171875 C 331.035156 307.515625 334 304.550781 337.65625 304.550781 L 357.519531 304.550781 L 357.515625 304.550781 C 361.171875 304.550781 364.136719 307.515625 364.136719 311.171875 C 364.136719 314.828125 361.171875 317.792969 357.515625 317.792969 Z M 79.449219 192 L 72.828125 192 C 69.171875 192 66.207031 189.035156 66.207031 185.378906 C 66.207031 181.722656 69.171875 178.757812 72.828125 178.757812 L 79.449219 178.757812 C 83.105469 178.757812 86.070312 181.722656 86.070312 185.378906 C 86.070312 189.035156 83.105469 192 79.449219 192 Z M 357.515625 59.585938 L 337.652344 59.585938 L 337.65625 59.585938 C 334 59.585938 331.035156 56.621094 331.035156 52.964844 C 331.035156 49.308594 334 46.34375 337.65625 46.34375 L 357.519531 46.34375 L 357.515625 46.34375 C 361.171875 46.34375 364.136719 49.308594 364.136719 52.964844 C 364.136719 56.621094 361.171875 59.585938 357.515625 59.585938 Z M 311.171875 59.585938 L 304.550781 59.585938 C 300.894531 59.585938 297.929688 56.621094 297.929688 52.964844 C 297.929688 49.308594 300.894531 46.34375 304.550781 46.34375 L 311.171875 46.34375 C 314.828125 46.34375 317.792969 49.308594 317.792969 52.964844 C 317.792969 56.621094 314.828125 59.585938 311.171875 59.585938 Z M 46.34375 33.101562 L 26.484375 33.101562 C 22.828125 33.101562 19.863281 30.140625 19.863281 26.484375 C 19.863281 22.828125 22.828125 19.863281 26.484375 19.863281 L 46.347656 19.863281 L 46.34375 19.863281 C 50 19.863281 52.964844 22.828125 52.964844 26.484375 C 52.964844 30.140625 50 33.101562 46.34375 33.101562 Z M 79.449219 33.101562 L 72.828125 33.101562 C 69.171875 33.101562 66.207031 30.140625 66.207031 26.484375 C 66.207031 22.828125 69.171875 19.863281 72.828125 19.863281 L 79.449219 19.863281 C 83.105469 19.863281 86.070312 22.828125 86.070312 26.484375 C 86.070312 30.140625 83.105469 33.101562 79.449219 33.101562 Z M 357.515625 33.101562 L 337.652344 33.101562 L 337.65625 33.101562 C 334 33.101562 331.035156 30.140625 331.035156 26.484375 C 331.035156 22.828125 334 19.863281 337.65625 19.863281 L 357.519531 19.863281 L 357.515625 19.863281 C 361.171875 19.863281 364.136719 22.828125 364.136719 26.484375 C 364.136719 30.140625 361.171875 33.101562 357.515625 33.101562 Z M 311.171875 33.101562 L 304.550781 33.101562 C 300.894531 33.101562 297.929688 30.140625 297.929688 26.484375 C 297.929688 22.828125 300.894531 19.863281 304.550781 19.863281 L 311.171875 19.863281 C 314.828125 19.863281 317.792969 22.828125 317.792969 26.484375 C 317.792969 30.140625 314.828125 33.101562 311.171875 33.101562 Z M 357.515625 86.070312 L 337.652344 86.070312 L 337.65625 86.070312 C 334 86.070312 331.035156 83.105469 331.035156 79.449219 C 331.035156 75.792969 334 72.828125 337.65625 72.828125 L 357.519531 72.828125 L 357.515625 72.828125 C 361.171875 72.828125 364.136719 75.792969 364.136719 79.449219 C 364.136719 83.105469 361.171875 86.070312 357.515625 86.070312 Z M 311.171875 86.070312 L 304.550781 86.070312 C 300.894531 86.070312 297.929688 83.105469 297.929688 79.449219 C 297.929688 75.792969 300.894531 72.828125 304.550781 72.828125 L 311.171875 72.828125 C 314.828125 72.828125 317.792969 75.792969 317.792969 79.449219 C 317.792969 83.105469 314.828125 86.070312 311.171875 86.070312 Z M 357.515625 112.550781 L 337.652344 112.550781 L 337.65625 112.550781 C 334 112.550781 331.035156 109.585938 331.035156 105.929688 C 331.035156 102.273438 334 99.308594 337.65625 99.308594 L 357.519531 99.308594 L 357.515625 99.308594 C 361.171875 99.308594 364.136719 102.273438 364.136719 105.929688 C 364.136719 109.585938 361.171875 112.550781 357.515625 112.550781 Z M 311.171875 112.550781 L 304.550781 112.550781 C 300.894531 112.550781 297.929688 109.585938 297.929688 105.929688 C 297.929688 102.273438 300.894531 99.308594 304.550781 99.308594 L 311.171875 99.308594 C 314.828125 99.308594 317.792969 102.273438 317.792969 105.929688 C 317.792969 109.585938 314.828125 112.550781 311.171875 112.550781 Z M 357.515625 139.035156 L 337.652344 139.035156 L 337.65625 139.035156 C 334 139.035156 331.035156 136.070312 331.035156 132.414062 C 331.035156 128.757812 334 125.792969 337.65625 125.792969 L 357.519531 125.792969 L 357.515625 125.792969 C 361.171875 125.792969 364.136719 128.757812 364.136719 132.414062 C 364.136719 136.070312 361.171875 139.035156 357.515625 139.035156 Z M 311.171875 139.035156 L 304.550781 139.035156 C 300.894531 139.035156 297.929688 136.070312 297.929688 132.414062 C 297.929688 128.757812 300.894531 125.792969 304.550781 125.792969 L 311.171875 125.792969 C 314.828125 125.792969 317.792969 128.757812 317.792969 132.414062 C 317.792969 136.070312 314.828125 139.035156 311.171875 139.035156 Z M 357.515625 165.515625 L 337.652344 165.515625 L 337.65625 165.515625 C 334 165.515625 331.035156 162.554688 331.035156 158.898438 C 331.035156 155.238281 334 152.277344 337.65625 152.277344 L 357.519531 152.277344 L 357.515625 152.277344 C 361.171875 152.277344 364.136719 155.238281 364.136719 158.898438 C 364.136719 162.554688 361.171875 165.515625 357.515625 165.515625 Z M 311.171875 165.515625 L 304.550781 165.515625 C 300.894531 165.515625 297.929688 162.554688 297.929688 158.898438 C 297.929688 155.238281 300.894531 152.277344 304.550781 152.277344 L 311.171875 152.277344 C 314.828125 152.277344 317.792969 155.238281 317.792969 158.898438 C 317.792969 162.554688 314.828125 165.515625 311.171875 165.515625 Z M 357.515625 192 L 337.652344 192 L 337.65625 192 C 334 192 331.035156 189.035156 331.035156 185.378906 C 331.035156 181.722656 334 178.757812 337.65625 178.757812 L 357.519531 178.757812 L 357.515625 178.757812 C 361.171875 178.757812 364.136719 181.722656 364.136719 185.378906 C 364.136719 189.035156 361.171875 192 357.515625 192 Z M 311.171875 192 L 304.550781 192 C 300.894531 192 297.929688 189.035156 297.929688 185.378906 C 297.929688 181.722656 300.894531 178.757812 304.550781 178.757812 L 311.171875 178.757812 C 314.828125 178.757812 317.792969 181.722656 317.792969 185.378906 C 317.792969 189.035156 314.828125 192 311.171875 192 Z M 311.171875 192 " />
</g><g id="Hotel_free_icon_uTlUxsm-11"><path style=" stroke:none;fill-rule:nonzero;fill:rgb(82.352941%,33.72549%,15.294118%);fill-opacity:1;" d="M 92.691406 238.34375 L 92.691406 251.585938 L 79.449219 251.585938 L 79.449219 238.34375 C 79.449219 234.6875 82.414062 231.722656 86.070312 231.722656 C 89.726562 231.722656 92.691406 234.6875 92.691406 238.34375 Z M 304.550781 238.34375 L 304.550781 251.585938 L 291.308594 251.585938 L 291.308594 238.34375 C 291.308594 234.6875 294.273438 231.722656 297.929688 231.722656 C 301.585938 231.722656 304.550781 234.6875 304.550781 238.34375 Z M 304.550781 238.34375 " />
</g><g id="Hotel_free_icon_uTlUxsm-12"><path style=" stroke:none;fill-rule:nonzero;fill:rgb(100%,100%,100%);fill-opacity:1;" d="M 136.242188 198.621094 C 133.242188 198.621094 130.621094 196.609375 129.847656 193.714844 C 129.070312 190.820312 130.335938 187.765625 132.929688 186.265625 C 151.082031 176.5625 171.421875 171.695312 192 172.136719 C 195.65625 172.136719 198.621094 175.101562 198.621094 178.757812 C 198.621094 182.414062 195.65625 185.378906 192 185.378906 C 173.757812 184.992188 155.714844 189.234375 139.558594 197.707031 C 138.550781 198.296875 137.40625 198.613281 136.242188 198.621094 Z M 136.242188 198.621094 " />
</g><g id="Hotel_free_icon_uTlUxsm-13"><path style=" stroke:none;fill-rule:nonzero;fill:rgb(94.117647%,76.862745%,9.803922%);fill-opacity:1;" d="M 242.980469 72.496094 L 228.613281 86.070312 L 222.523438 91.832031 L 227.355469 119.308594 L 227.355469 119.304688 C 227.808594 121.785156 226.816406 124.308594 224.789062 125.8125 C 222.765625 127.316406 220.0625 127.539062 217.820312 126.390625 L 192 113.214844 L 166.179688 126.390625 C 163.9375 127.539062 161.234375 127.316406 159.210938 125.8125 C 157.183594 124.308594 156.191406 121.785156 156.644531 119.304688 L 161.476562 91.828125 L 155.386719 86.066406 L 141.019531 72.492188 L 141.019531 72.496094 C 139.160156 70.75 138.46875 68.085938 139.246094 65.652344 C 140.023438 63.21875 142.132812 61.453125 144.660156 61.109375 L 173.128906 57.136719 L 186.105469 31.714844 L 186.109375 31.714844 C 187.242188 29.503906 189.515625 28.109375 192 28.109375 C 194.484375 28.109375 196.757812 29.503906 197.890625 31.714844 L 210.867188 57.136719 L 239.335938 61.109375 L 239.339844 61.109375 C 241.867188 61.453125 243.976562 63.21875 244.753906 65.652344 C 245.53125 68.085938 244.839844 70.75 242.980469 72.496094 Z M 242.980469 72.496094 " />
</g></g>
</svg>