<svg xmlns="http://www.w3.org/2000/svg" width="384pt" height="384pt" viewBox="0 0 384 384" version="1.1" class="iconadda">
<g>
<g id="Map_free_icon_KXsYmpt-0"><path style=" stroke:none;fill-rule:nonzero;fill:#fedd8f;fill-opacity:1;" d="M 384 297.75 L 384 132.75 C 384 126.535156 378.964844 121.5 372.75 121.5 L 71.25 121.5 C 66.226562 121.5 61.8125 124.828125 60.433594 129.660156 L 0.433594 339.660156 C 0.144531 340.664062 0 352.953125 0 354 C 0 370.566406 13.433594 384 30 384 L 183.75 384 C 185.496094 384 187.21875 383.59375 188.78125 382.8125 L 217.675781 368.363281 L 238.785156 363.085938 L 249.386719 378.988281 L 249.390625 378.988281 C 251.476562 382.121094 254.988281 384 258.75 384 L 372.75 384 C 378.964844 384 384 378.964844 384 372.75 L 384 342.75 C 384 339.332031 382.445312 336.101562 379.777344 333.964844 L 357.351562 316.023438 L 376.925781 308.195312 L 376.929688 308.195312 C 381.199219 306.488281 384 302.351562 384 297.75 Z M 384 297.75 " />
</g><g id="Map_free_icon_KXsYmpt-1"><path style=" stroke:none;fill-rule:nonzero;fill:#ecc173;fill-opacity:1;" d="M 372.75 121.5 L 192 121.5 L 192 381.203125 L 217.675781 368.363281 L 238.785156 363.085938 L 249.386719 378.988281 L 249.390625 378.988281 C 251.476562 382.121094 254.988281 384 258.75 384 L 372.75 384 C 378.964844 384 384 378.964844 384 372.75 L 384 342.75 C 384 339.332031 382.445312 336.101562 379.777344 333.964844 L 357.351562 316.023438 L 376.925781 308.195312 L 376.929688 308.195312 C 381.199219 306.488281 384 302.351562 384 297.75 L 384 132.75 C 384 126.535156 378.964844 121.5 372.75 121.5 Z M 372.75 121.5 " />
</g><g id="Map_free_icon_KXsYmpt-2"><path style=" stroke:none;fill-rule:nonzero;fill:#feb354;fill-opacity:1;" d="M 270 316.5 L 161.25 316.5 C 155.035156 316.5 150 311.464844 150 305.25 C 150 299.035156 155.035156 294 161.25 294 L 270 294 C 278.269531 294 285 287.269531 285 279 C 285 270.730469 278.269531 264 270 264 L 172.5 264 C 151.824219 264 135 247.175781 135 226.5 C 135 205.824219 151.824219 189 172.5 189 L 281.25 189 C 287.464844 189 292.5 194.035156 292.5 200.25 C 292.5 206.464844 287.464844 211.5 281.25 211.5 L 172.5 211.5 C 164.230469 211.5 157.5 218.230469 157.5 226.5 C 157.5 234.769531 164.230469 241.5 172.5 241.5 L 270 241.5 C 290.675781 241.5 307.5 258.324219 307.5 279 C 307.5 299.675781 290.675781 316.5 270 316.5 Z M 270 316.5 " />
</g><g id="Map_free_icon_KXsYmpt-3"><path style=" stroke:none;fill-rule:nonzero;fill:#fe8e01;fill-opacity:1;" d="M 292.5 200.25 C 292.5 194.035156 287.464844 189 281.25 189 L 192 189 L 192 211.5 L 281.25 211.5 C 287.464844 211.5 292.5 206.464844 292.5 200.25 Z M 270 241.5 L 192 241.5 L 192 264 L 270 264 C 278.269531 264 285 270.730469 285 279 C 285 287.269531 278.269531 294 270 294 L 192 294 L 192 316.5 L 270 316.5 C 290.675781 316.5 307.5 299.675781 307.5 279 C 307.5 258.324219 290.675781 241.5 270 241.5 Z M 270 241.5 " />
</g><g id="Map_free_icon_KXsYmpt-4"><path style=" stroke:none;fill-rule:nonzero;fill:#fe3738;fill-opacity:1;" d="M 303.75 228.375 C 288.242188 228.375 275.625 215.757812 275.625 200.25 C 275.625 184.742188 288.242188 172.125 303.75 172.125 C 319.257812 172.125 331.875 184.742188 331.875 200.25 C 331.875 215.757812 319.257812 228.375 303.75 228.375 Z M 303.75 228.375 " />
</g><g id="Map_free_icon_KXsYmpt-5"><path style=" stroke:none;fill-rule:nonzero;fill:#fe7d47;fill-opacity:1;" d="M 138.75 333.375 C 123.242188 333.375 110.625 320.757812 110.625 305.25 C 110.625 289.742188 123.242188 277.125 138.75 277.125 C 154.257812 277.125 166.875 289.742188 166.875 305.25 C 166.875 320.757812 154.257812 333.375 138.75 333.375 Z M 138.75 333.375 " />
</g><g id="Map_free_icon_KXsYmpt-6"><path style=" stroke:none;fill-rule:nonzero;fill:#f9f4c9;fill-opacity:1;" d="M 71.25 61.5 L 41.25 61.5 C 18.46875 61.5 0 79.96875 0 102.75 L 0 354 C 0 337.433594 13.433594 324 30 324 L 71.25 324 C 77.464844 324 82.5 318.964844 82.5 312.75 L 82.5 72.75 C 82.5 66.535156 77.464844 61.5 71.25 61.5 Z M 71.25 61.5 " />
</g><g id="Map_free_icon_KXsYmpt-7"><path style=" stroke:none;fill-rule:nonzero;fill:#fe7d47;fill-opacity:1;" d="M 252.339844 33.890625 C 239.410156 12.671875 216.851562 0 192 0 C 167.148438 0 144.589844 12.671875 131.660156 33.890625 C 118.730469 55.113281 117.808594 80.96875 129.203125 103.054688 L 177.417969 196.519531 L 177.417969 196.523438 C 179.269531 200.109375 182.375 202.886719 186.148438 204.324219 C 189.917969 205.765625 194.085938 205.765625 197.855469 204.324219 C 201.625 202.886719 204.730469 200.109375 206.582031 196.523438 L 254.796875 103.058594 C 266.1875 80.972656 265.269531 55.117188 252.339844 33.894531 Z M 252.339844 33.890625 " />
</g><g id="Map_free_icon_KXsYmpt-8"><path style=" stroke:none;fill-rule:nonzero;fill:#fe3738;fill-opacity:1;" d="M 252.339844 33.890625 C 240.59375 14.613281 220.90625 2.394531 198.769531 0.316406 C 195.132812 -0.0234375 192 2.859375 192 6.507812 L 192 205.40625 C 195.011719 205.40625 197.964844 204.578125 200.539062 203.011719 C 203.109375 201.445312 205.203125 199.199219 206.582031 196.523438 L 254.796875 103.058594 C 266.191406 80.972656 265.269531 55.117188 252.339844 33.894531 Z M 252.339844 33.890625 " />
</g><g id="Map_free_icon_KXsYmpt-9"><path style=" stroke:none;fill-rule:nonzero;fill:#f4f4f6;fill-opacity:1;" d="M 192 106.5 C 173.390625 106.5 158.25 91.359375 158.25 72.75 C 158.25 54.140625 173.390625 39 192 39 C 210.609375 39 225.75 54.140625 225.75 72.75 C 225.75 91.359375 210.609375 106.5 192 106.5 Z M 192 106.5 " />
</g><g id="Map_free_icon_KXsYmpt-10"><path style=" stroke:none;fill-rule:nonzero;fill:#d5e6f6;fill-opacity:1;" d="M 225.75 72.75 C 225.75 54.140625 210.609375 39 192 39 L 192 106.5 C 210.609375 106.5 225.75 91.359375 225.75 72.75 Z M 225.75 72.75 " />
</g></g>
</svg>