<svg xmlns="http://www.w3.org/2000/svg" width="384pt" height="384pt" viewBox="0 0 384 384" version="1.1" class="iconadda">
<g>
<g id="Map_free_icon_5_G0ry1Qk-0"><path style=" stroke:none;fill-rule:nonzero;fill:#c2ddff;fill-opacity:1;" d="M 354.328125 167.953125 L 354.328125 13.121094 C 354.328125 9.273438 350.765625 6.417969 347.011719 7.253906 L 192 41.699219 L 113.28125 36.621094 C 113.632812 38.261719 113.839844 39.953125 113.839844 41.699219 C 113.839844 54.980469 103.074219 65.746094 89.792969 65.746094 C 76.511719 65.746094 65.746094 54.980469 65.746094 41.699219 C 65.746094 38.859375 66.328125 36.175781 67.230469 33.648438 L 13.246094 30.164062 C 9.363281 29.914062 6.269531 33.359375 6.9375 37.195312 L 29.675781 167.953125 L 29.675781 337.480469 C 29.675781 340.296875 31.632812 342.738281 34.382812 343.347656 L 192 378.375 L 373.136719 331.628906 C 376.113281 330.859375 378.03125 327.96875 377.582031 324.925781 Z M 354.328125 167.953125 " />
</g><g id="Map_free_icon_5_G0ry1Qk-1"><path style=" stroke:none;fill-rule:nonzero;fill:#95d6a4;fill-opacity:1;" d="M 354.328125 167.953125 L 354.328125 74.949219 C 327.410156 127.703125 260.351562 106.050781 242.351562 137.894531 C 223.265625 171.664062 271.660156 205.027344 241.601562 260.140625 C 223.988281 292.429688 180.085938 274.550781 154.425781 258.886719 C 135.136719 247.113281 107.832031 258.136719 95.808594 282.183594 C 84.933594 303.933594 50.136719 311.441406 29.675781 289.902344 L 29.675781 337.480469 C 29.675781 340.296875 31.632812 342.738281 34.382812 343.347656 L 192 378.375 L 272.269531 357.660156 C 286.304688 308.246094 322.394531 324.734375 307.980469 288.945312 C 294.429688 255.304688 344.484375 236.0625 367.753906 258.605469 Z M 354.328125 167.953125 " />
</g><g id="Map_free_icon_5_G0ry1Qk-2"><path style=" stroke:none;fill-rule:nonzero;fill:#a3ccff;fill-opacity:1;" d="M 113.28125 36.621094 C 113.632812 38.261719 113.839844 39.953125 113.839844 41.699219 C 113.839844 54.980469 103.074219 65.746094 89.792969 65.746094 C 76.511719 65.746094 65.746094 54.980469 65.746094 41.699219 C 65.746094 38.859375 66.328125 36.175781 67.230469 33.648438 L 13.246094 30.164062 C 9.363281 29.914062 6.269531 33.359375 6.9375 37.195312 L 29.675781 167.953125 L 192 204.023438 L 192 41.699219 Z M 113.28125 36.621094 " />
</g><g id="Map_free_icon_5_G0ry1Qk-3"><path style=" stroke:none;fill-rule:nonzero;fill:#95d6a4;fill-opacity:1;" d="M 249.015625 29.027344 L 192 41.699219 L 113.28125 36.621094 C 113.632812 38.261719 113.839844 39.953125 113.839844 41.699219 C 113.839844 54.980469 103.074219 65.746094 89.792969 65.746094 C 76.511719 65.746094 65.746094 54.980469 65.746094 41.699219 C 65.746094 38.859375 66.328125 36.175781 67.230469 33.648438 L 13.246094 30.164062 C 9.363281 29.914062 6.269531 33.359375 6.9375 37.195312 L 29.675781 167.953125 L 29.675781 198.125 C 99.75 266.03125 167.558594 194.808594 153.675781 135.261719 C 140.726562 79.714844 219.3125 105.796875 238.222656 88.667969 C 262.738281 66.460938 254.28125 40.109375 249.019531 29.027344 Z M 249.015625 29.027344 " />
</g><g id="Map_free_icon_5_G0ry1Qk-4"><path style=" stroke:none;fill-rule:nonzero;fill:#dbeaff;fill-opacity:1;" d="M 377.582031 324.925781 L 354.324219 167.949219 L 192 204.023438 L 192 378.375 L 373.136719 331.628906 C 376.113281 330.859375 378.03125 327.96875 377.582031 324.925781 Z M 377.582031 324.925781 " />
</g><g id="Map_free_icon_5_G0ry1Qk-5"><path style=" stroke:none;fill-rule:nonzero;fill:#b2e59f;fill-opacity:1;" d="M 307.984375 288.945312 C 294.433594 255.304688 344.488281 236.0625 367.757812 258.605469 L 354.328125 167.949219 L 246.371094 191.941406 C 252.183594 211.167969 256.394531 233.015625 241.601562 260.136719 C 231.1875 279.222656 211.589844 280.722656 192 275.570312 L 192 378.375 L 272.269531 357.660156 C 286.304688 308.25 322.394531 324.734375 307.980469 288.945312 Z M 307.984375 288.945312 " />
</g><g id="Map_free_icon_5_G0ry1Qk-6"><path style=" stroke:none;fill-rule:nonzero;fill:#78c1a4;fill-opacity:1;" d="M 113.28125 36.621094 C 113.632812 38.261719 113.839844 39.953125 113.839844 41.699219 C 113.839844 54.980469 103.074219 65.746094 89.792969 65.746094 C 76.511719 65.746094 65.746094 54.980469 65.746094 41.699219 C 65.746094 38.859375 36.65625 31.675781 36.65625 31.675781 L 13.242188 30.164062 C 9.359375 29.914062 6.265625 33.359375 6.933594 37.195312 L 29.671875 167.953125 L 143.175781 193.175781 C 153.796875 176.304688 158.304688 155.144531 153.667969 135.261719 C 146.363281 103.925781 168.1875 98.570312 191.996094 96.777344 L 192 41.699219 Z M 113.28125 36.621094 " />
</g><g id="Map_free_icon_5_G0ry1Qk-7"><path style=" stroke:none;fill-rule:nonzero;fill:#54aa90;fill-opacity:1;" d="M 113.84375 41.699219 C 113.84375 54.980469 103.078125 65.746094 89.796875 65.746094 C 76.511719 65.746094 65.746094 54.980469 65.746094 41.699219 C 65.746094 38.859375 66.324219 36.175781 67.230469 33.648438 L 36.65625 31.675781 C 36.035156 34.976562 35.6875 38.339844 35.6875 41.699219 C 35.6875 71.007812 59.136719 101.097656 73.113281 116.429688 C 77.386719 121.117188 83.46875 123.804688 89.796875 123.804688 C 96.125 123.804688 102.207031 121.117188 106.480469 116.429688 C 120.457031 101.101562 143.90625 71.007812 143.90625 41.699219 C 143.90625 40.648438 143.832031 39.617188 143.757812 38.585938 L 113.28125 36.621094 C 113.636719 38.261719 113.84375 39.953125 113.84375 41.699219 Z M 113.84375 41.699219 " />
</g><g id="Map_free_icon_5_G0ry1Qk-8"><path style=" stroke:none;fill-rule:nonzero;fill:#fe7f87;fill-opacity:1;" d="M 89.792969 5.625 C 69.871094 5.625 53.71875 21.777344 53.71875 41.699219 C 53.71875 66.097656 77.484375 94.460938 86.4375 104.277344 L 86.4375 104.273438 C 87.296875 105.222656 88.515625 105.765625 89.792969 105.765625 C 91.074219 105.765625 92.292969 105.222656 93.152344 104.273438 C 102.101562 94.457031 125.867188 66.097656 125.867188 41.695312 C 125.867188 21.773438 109.714844 5.621094 89.792969 5.621094 Z M 89.792969 53.582031 C 83.230469 53.582031 77.90625 48.261719 77.90625 41.695312 C 77.90625 35.132812 83.226562 29.808594 89.792969 29.808594 C 96.355469 29.808594 101.679688 35.128906 101.679688 41.695312 C 101.679688 48.257812 96.359375 53.582031 89.792969 53.582031 Z M 89.792969 53.582031 " />
</g><g id="Map_free_icon_5_G0ry1Qk-9"><path style=" stroke:none;fill-rule:nonzero;fill:#95d6a4;fill-opacity:1;" d="M 298.464844 52.46875 C 316.820312 65.628906 342.738281 42.480469 354.328125 30.359375 L 354.324219 13.121094 C 354.324219 9.273438 350.761719 6.417969 347.007812 7.253906 L 287.988281 20.371094 C 287.640625 27.136719 287.832031 44.851562 298.460938 52.472656 Z M 298.464844 52.46875 " />
</g><g id="Map_free_icon_5_G0ry1Qk-10"><path style=" stroke:none;fill-rule:nonzero;fill:#e5636f;fill-opacity:1;" d="M 53.722656 41.699219 C 53.722656 66.097656 77.488281 94.460938 86.441406 104.273438 L 86.4375 104.273438 C 87.296875 105.222656 88.515625 105.765625 89.792969 105.765625 C 91.074219 105.765625 92.292969 105.222656 93.148438 104.273438 C 94.882812 102.375 97.175781 99.765625 99.738281 96.636719 C 90.867188 86.375 72.9375 61.929688 72.9375 41.695312 C 72.9375 26.984375 82.289062 14.535156 96.804688 12.09375 L 107.511719 10.292969 L 107.507812 10.292969 C 102.105469 7.230469 96.003906 5.621094 89.792969 5.625 C 69.871094 5.625 53.71875 21.777344 53.71875 41.699219 Z M 53.722656 41.699219 " />
</g><g id="Map_free_icon_5_G0ry1Qk-11"><path style=" stroke:none;fill-rule:nonzero;fill:#000001;fill-opacity:1;" d="M 383.9375 329.453125 L 359.949219 167.539062 L 359.953125 5.625 C 359.953125 3.917969 359.175781 2.304688 357.847656 1.238281 C 356.515625 0.171875 354.773438 -0.234375 353.105469 0.132812 L 191.5625 36.03125 L 130.359375 32.082031 C 126.007812 13.714844 109.476562 0 89.792969 0 C 66.800781 0 48.097656 18.703125 48.097656 41.699219 C 48.097656 73.722656 84.277344 110.269531 85.816406 111.808594 C 86.871094 112.863281 88.300781 113.457031 89.792969 113.457031 C 91.285156 113.457031 92.714844 112.863281 93.769531 111.808594 C 95.28125 110.296875 130.199219 75.023438 131.453125 43.429688 L 186.375 46.972656 L 186.375 53.726562 L 186.375 53.722656 C 186.375 56.832031 188.890625 59.347656 192 59.347656 C 195.105469 59.347656 197.625 56.832031 197.625 53.722656 L 197.625 46.207031 L 243.660156 35.976562 C 247.664062 43.222656 257.164062 65.597656 234.621094 84.339844 C 229.335938 88.734375 216.058594 89.425781 203.222656 90.09375 C 201.375 90.191406 199.503906 90.289062 197.621094 90.398438 L 197.621094 77.769531 L 197.625 77.769531 C 197.625 74.660156 195.105469 72.144531 192 72.144531 C 188.890625 72.144531 186.375 74.660156 186.375 77.769531 L 186.375 91.285156 C 172.503906 92.773438 159.394531 96.125 152.140625 105.769531 C 146.507812 113.257812 145.183594 123.609375 148.195312 136.539062 C 152.117188 153.363281 149.140625 171.628906 141.175781 186.96875 L 54.945312 167.804688 C 51.925781 167.167969 48.957031 169.078125 48.289062 172.089844 C 47.617188 175.097656 49.5 178.085938 52.503906 178.785156 L 134.875 197.089844 C 129.167969 204.804688 122.023438 211.285156 113.785156 215.75 C 102.476562 221.878906 89.832031 223.695312 77.222656 221.011719 C 62.996094 217.980469 48.902344 209.460938 35.300781 195.710938 L 35.300781 167.953125 L 35.296875 167.953125 C 35.296875 167.628906 35.265625 167.308594 35.210938 166.988281 L 35.214844 166.988281 L 12.390625 35.746094 L 29.3125 36.839844 C 32.410156 37.042969 35.089844 34.6875 35.289062 31.589844 C 35.488281 28.488281 33.136719 25.8125 30.035156 25.613281 L 5.984375 24.0625 L 5.988281 24.0625 C 4.265625 23.945312 2.589844 24.632812 1.4375 25.917969 C 0.289062 27.199219 -0.210938 28.941406 0.0820312 30.636719 L 24.046875 168.4375 L 24.046875 342.304688 C 24.046875 344.941406 25.878906 347.222656 28.453125 347.792969 L 190.78125 383.867188 C 191.183594 383.957031 191.59375 384 192 384 C 192.476562 384 192.941406 383.921875 193.398438 383.804688 L 193.402344 383.824219 L 379.777344 335.726562 L 379.78125 335.726562 C 382.566406 335.003906 384.359375 332.300781 383.9375 329.453125 Z M 89.789062 99.59375 C 86.433594 95.859375 81.382812 89.921875 76.351562 82.792969 C 65.226562 67.03125 59.347656 52.820312 59.347656 41.699219 C 59.347656 24.910156 73.003906 11.25 89.792969 11.25 C 106.582031 11.25 120.242188 24.910156 120.242188 41.699219 C 120.242188 63.375 98.847656 89.503906 89.789062 99.59375 Z M 302.765625 291.046875 C 309.089844 306.746094 304.835938 309.570312 294.566406 316.394531 C 285.027344 322.734375 272.0625 331.347656 265.972656 353.476562 L 197.625 371.113281 L 197.625 282.671875 C 201.660156 283.390625 205.710938 283.804688 209.699219 283.804688 C 214.039062 283.804688 218.308594 283.320312 222.414062 282.21875 C 232.941406 279.398438 241.058594 272.875 246.539062 262.828125 C 260.824219 236.640625 258.402344 214.65625 253.421875 196.132812 L 331.496094 178.78125 C 334.527344 178.109375 336.441406 175.101562 335.765625 172.070312 C 335.089844 169.039062 332.089844 167.125 329.054688 167.800781 L 250.207031 185.328125 C 249.917969 184.417969 249.628906 183.511719 249.34375 182.617188 C 244.136719 166.316406 240.023438 153.441406 247.246094 140.660156 C 253.800781 129.066406 268.484375 126.632812 285.488281 123.820312 C 306.816406 120.289062 332.253906 116.074219 348.699219 91.652344 L 348.699219 167.953125 C 348.699219 168.234375 348.726562 168.507812 348.765625 168.777344 L 348.757812 168.777344 L 360.792969 250.023438 L 360.796875 250.023438 C 356.53125 247.335938 351.800781 245.476562 346.847656 244.535156 C 337.238281 242.695312 326.8125 244.210938 318.246094 248.699219 C 301.925781 257.253906 295.847656 273.875 302.765625 291.046875 Z M 197.625 208.535156 L 242.441406 198.574219 C 247.199219 215.878906 249.214844 234.429688 236.660156 257.441406 C 232.65625 264.78125 227.042969 269.332031 219.5 271.351562 C 212.746094 273.160156 205.179688 272.785156 197.621094 271.207031 Z M 348.703125 26.683594 C 346.199219 29.695312 339.878906 36.878906 331.992188 42.710938 C 319.746094 51.765625 309.570312 53.511719 301.742188 47.898438 C 293.453125 41.953125 292.363281 30.019531 292.273438 25.175781 L 348.699219 12.636719 Z M 203.8125 101.332031 C 219.160156 100.535156 233.65625 99.777344 241.816406 92.992188 C 259.949219 77.917969 261.601562 60.734375 259.796875 48.96875 C 258.832031 42.6875 256.792969 37.304688 254.972656 33.464844 L 281.113281 27.65625 C 281.574219 35.261719 284.027344 49.039062 295.1875 57.039062 C 299.269531 59.964844 304.746094 62.40625 311.664062 62.40625 C 319.066406 62.40625 328.117188 59.609375 338.867188 51.617188 C 342.53125 48.890625 345.859375 45.949219 348.703125 43.199219 L 348.703125 64.914062 C 337.011719 103.882812 309.890625 108.375 283.65625 112.71875 C 264.628906 115.867188 246.65625 118.84375 237.453125 135.121094 C 227.8125 152.179688 233.0625 168.625 238.625 186.039062 L 239.179688 187.777344 L 197.621094 197.011719 L 197.625 101.667969 C 199.703125 101.542969 201.773438 101.433594 203.808594 101.328125 Z M 153.664062 187.019531 C 161.199219 169.964844 163.148438 151.128906 159.152344 133.984375 C 156.898438 124.316406 157.546875 117.300781 161.132812 112.53125 C 165.746094 106.394531 175.496094 103.863281 186.378906 102.601562 L 186.378906 197.011719 L 152.515625 189.488281 C 152.90625 188.671875 153.296875 187.851562 153.664062 187.019531 Z M 88.710938 233.539062 C 99.132812 233.539062 109.382812 230.933594 119.144531 225.644531 C 130.019531 219.753906 139.511719 210.777344 146.746094 199.730469 L 186.375 208.535156 L 186.375 268.054688 C 174.324219 263.882812 163.421875 257.785156 157.355469 254.082031 C 147.941406 248.335938 136.433594 246.984375 124.957031 250.28125 C 110.496094 254.433594 98.035156 265.144531 90.773438 279.667969 C 85.351562 290.511719 74.476562 297.824219 63.070312 298.304688 C 52.101562 298.753906 42.269531 292.886719 35.296875 281.757812 L 35.296875 211.101562 C 52.566406 225.925781 70.890625 233.539062 88.707031 233.539062 Z M 35.296875 337.789062 L 35.296875 299.128906 C 42.929688 305.898438 52.117188 309.574219 61.890625 309.574219 C 62.4375 309.574219 62.988281 309.5625 63.539062 309.539062 C 78.972656 308.890625 93.613281 299.140625 100.832031 284.695312 C 106.601562 273.152344 116.78125 264.328125 128.058594 261.09375 C 136.472656 258.675781 144.792969 259.597656 151.488281 263.6875 C 160.019531 268.894531 172.683594 275.703125 186.371094 279.914062 L 186.371094 371.363281 Z M 278.9375 350.128906 C 284.320312 336.710938 292.996094 330.941406 300.789062 325.761719 C 311.683594 318.523438 322.945312 311.042969 313.199219 286.84375 C 306.164062 269.375 319.28125 260.859375 323.46875 258.664062 C 335.820312 252.195312 354.132812 253.914062 363.40625 267.992188 C 363.429688 268.023438 363.453125 268.054688 363.472656 268.085938 L 372.066406 326.097656 Z M 278.9375 350.128906 " />
</g><g id="Map_free_icon_5_G0ry1Qk-12"><path style=" stroke:none;fill-rule:nonzero;fill:#000001;fill-opacity:1;" d="M 89.792969 24.046875 C 80.0625 24.046875 72.144531 31.964844 72.144531 41.695312 C 72.144531 51.425781 80.0625 59.34375 89.792969 59.34375 C 99.523438 59.34375 107.441406 51.425781 107.441406 41.695312 C 107.441406 31.964844 99.523438 24.046875 89.792969 24.046875 Z M 89.792969 48.09375 C 86.265625 48.09375 83.394531 45.222656 83.394531 41.695312 C 83.394531 38.167969 86.265625 35.296875 89.792969 35.296875 C 93.320312 35.296875 96.191406 38.167969 96.191406 41.695312 C 96.191406 45.222656 93.320312 48.09375 89.792969 48.09375 Z M 253.09375 308.265625 C 250.894531 306.066406 247.335938 306.066406 245.136719 308.265625 L 238.59375 314.808594 L 232.050781 308.265625 C 229.855469 306.066406 226.292969 306.066406 224.097656 308.265625 C 221.898438 310.460938 221.898438 314.023438 224.097656 316.21875 L 230.640625 322.761719 L 224.097656 329.304688 C 221.898438 331.503906 221.898438 335.0625 224.097656 337.261719 C 225.195312 338.359375 226.636719 338.910156 228.074219 338.910156 C 229.511719 338.910156 230.953125 338.359375 232.050781 337.261719 L 238.59375 330.71875 L 245.136719 337.261719 C 246.234375 338.359375 247.675781 338.910156 249.113281 338.910156 C 250.550781 338.910156 251.992188 338.359375 253.089844 337.261719 L 253.09375 337.261719 C 255.289062 335.0625 255.289062 331.503906 253.09375 329.304688 L 246.550781 322.761719 L 253.09375 316.21875 C 255.289062 314.023438 255.289062 310.460938 253.09375 308.265625 Z M 253.09375 308.265625 " />
</g></g>
</svg>