<svg xmlns="http://www.w3.org/2000/svg" width="384pt" height="384pt" viewBox="0 0 384 384" version="1.1" class="iconadda">
<g>
<g id="Price_Tag_free_icon_8Tis6sO-0"><path style=" stroke:none;fill-rule:nonzero;fill:#000001;fill-opacity:1;" d="M 336.800781 291 C 338.292969 291 339.722656 290.40625 340.777344 289.351562 C 341.832031 288.296875 342.425781 286.867188 342.425781 285.375 L 342.425781 150.375 C 342.425781 143.660156 339.808594 136.792969 335.058594 131.035156 L 293.339844 80.488281 L 293.339844 80.492188 C 291.21875 77.910156 288.710938 75.664062 285.914062 73.832031 C 286.082031 72.113281 286.175781 70.375 286.175781 68.625 L 286.175781 5.625 C 286.175781 2.519531 283.660156 0 280.550781 0 C 277.445312 0 274.925781 2.519531 274.925781 5.625 C 274.925781 5.625 274.914062 69.160156 274.910156 69.429688 C 273.308594 69.144531 271.679688 69 270.050781 69 L 197.300781 69 C 192.179688 69 187.160156 70.4375 182.664062 73.078125 C 182.46875 73.148438 182.277344 73.226562 182.089844 73.320312 L 127.257812 100.03125 L 127.253906 100.027344 C 121.164062 103.09375 116.328125 108.179688 113.574219 114.417969 C 113.542969 114.484375 113.515625 114.554688 113.488281 114.625 L 90.816406 172.128906 L 90.820312 172.128906 C 89.730469 175.007812 91.15625 178.222656 94.019531 179.351562 C 96.878906 180.480469 100.117188 179.101562 101.285156 176.253906 L 123.910156 118.859375 C 125.613281 115.058594 128.585938 111.941406 132.238281 110.109375 L 161.210938 96 L 132.292969 131.035156 C 127.964844 136.28125 125.675781 142.96875 125.675781 150.375 L 125.675781 344.625 C 125.675781 346.886719 125.875 349.101562 126.234375 351.261719 L 68.273438 325.578125 C 55.179688 319.777344 49.246094 304.367188 55.046875 291.226562 L 55.121094 291.054688 L 91.785156 199.941406 C 92.945312 197.058594 91.546875 193.785156 88.664062 192.625 C 85.785156 191.464844 82.507812 192.859375 81.347656 195.742188 L 44.71875 286.769531 C 36.480469 305.558594 44.992188 327.5625 63.71875 335.863281 L 131.6875 365.980469 C 131.769531 366.015625 131.855469 366.042969 131.941406 366.078125 C 138.839844 376.855469 150.765625 384.003906 164.304688 384.003906 L 303.054688 384.003906 C 324.398438 384.003906 342.429688 365.972656 342.429688 344.628906 L 342.429688 311.628906 L 342.425781 311.625 C 342.425781 308.519531 339.910156 306 336.800781 306 C 333.695312 306 331.175781 308.519531 331.175781 311.625 L 331.175781 344.625 C 331.175781 359.871094 318.296875 372.75 303.050781 372.75 L 164.300781 372.75 C 149.207031 372.75 136.925781 360.132812 136.925781 344.625 L 136.925781 150.375 C 136.925781 145.546875 138.285156 141.449219 140.96875 138.199219 L 182.6875 87.652344 C 186.570312 82.949219 191.898438 80.25 197.300781 80.25 L 270.050781 80.25 C 271.109375 80.25 272.167969 80.355469 273.210938 80.558594 C 269.691406 92.566406 260.96875 102.585938 249.1875 107.609375 C 246.109375 102.457031 240.476562 99 234.050781 99 C 224.332031 99 216.425781 106.90625 216.425781 116.625 C 216.425781 126.34375 224.332031 134.25 234.050781 134.25 C 243.039062 134.25 250.46875 127.488281 251.539062 118.78125 C 266.6875 113.050781 278.144531 100.910156 283.246094 86.089844 L 283.246094 86.09375 C 283.742188 86.589844 284.21875 87.109375 284.664062 87.652344 L 326.382812 138.199219 C 329.472656 141.945312 331.175781 146.269531 331.175781 150.375 L 331.175781 285.375 C 331.175781 286.867188 331.769531 288.296875 332.824219 289.351562 C 333.878906 290.40625 335.308594 291 336.800781 291 Z M 234.050781 123 C 230.535156 123 227.675781 120.140625 227.675781 116.625 C 227.675781 113.109375 230.535156 110.25 234.050781 110.25 C 237.566406 110.25 240.425781 113.109375 240.425781 116.625 C 240.425781 120.140625 237.566406 123 234.050781 123 Z M 234.050781 123 " />
</g><g id="Price_Tag_free_icon_8Tis6sO-1"><path style=" stroke:none;fill-rule:nonzero;fill:#000001;fill-opacity:1;" d="M 185.300781 299.25 C 186.792969 299.253906 188.226562 298.660156 189.277344 297.601562 L 285.277344 201.601562 C 287.476562 199.40625 287.476562 195.84375 285.277344 193.648438 C 283.082031 191.453125 279.519531 191.453125 277.324219 193.648438 L 181.324219 289.648438 C 177.738281 292.992188 180.488281 299.421875 185.300781 299.25 Z M 197.300781 240 C 210.742188 240 221.675781 229.066406 221.675781 215.625 C 221.675781 202.183594 210.742188 191.25 197.300781 191.25 L 196.550781 191.25 C 183.109375 191.25 172.175781 202.183594 172.175781 215.625 C 172.175781 229.066406 183.109375 240 196.550781 240 Z M 183.425781 215.625 C 183.425781 208.386719 189.3125 202.5 196.550781 202.5 L 197.300781 202.5 C 204.539062 202.5 210.425781 208.386719 210.425781 215.625 C 210.425781 222.863281 204.539062 228.75 197.300781 228.75 L 196.550781 228.75 C 189.3125 228.75 183.425781 222.863281 183.425781 215.625 Z M 270.050781 299.25 L 270.800781 299.25 C 284.242188 299.25 295.175781 288.316406 295.175781 274.875 C 295.175781 261.433594 284.242188 250.5 270.800781 250.5 L 270.050781 250.5 C 256.609375 250.5 245.675781 261.433594 245.675781 274.875 C 245.675781 288.316406 256.609375 299.25 270.050781 299.25 Z M 270.050781 261.75 L 270.800781 261.75 C 278.039062 261.75 283.925781 267.636719 283.925781 274.875 C 283.925781 282.113281 278.039062 288 270.800781 288 L 270.050781 288 C 262.8125 288 256.925781 282.113281 256.925781 274.875 C 256.925781 267.636719 262.8125 261.75 270.050781 261.75 Z M 270.050781 261.75 " />
</g></g>
</svg>